<svg width="148" height="96" viewBox="0 0 148 96" fill="none" xmlns="http://www.w3.org/2000/svg">
<path d="M0 96V91H3V91.25H0.583165V92.9286H2.3026V93.1714H0.583165V95.7571H3V96H0Z" fill="white"/>
<path d="M7.69818 91L10.7527 95.05V91H11V96H10.7527V95.9857L7.64727 91.8714V96H7.4V91.5357L7 91H7.69818Z" fill="white"/>
<path d="M15 96V91H18V91.25H15.5832V92.9286H17.3026V93.1714H15.5832V95.7571H18V96H15Z" fill="white"/>
<path d="M24.2556 91C24.6037 91 24.9001 91.0595 25.1447 91.1786C25.3893 91.2976 25.5798 91.45 25.721 91.6357C25.8597 91.8214 25.9468 92.0286 25.9821 92.2548C26.0173 92.4809 26.0009 92.7024 25.9303 92.9143C25.8597 93.1286 25.7374 93.3214 25.5634 93.4929C25.3893 93.6643 25.1635 93.7905 24.886 93.8714L25.8668 96H25.6057L24.6461 93.9286C24.5849 93.9381 24.5214 93.9452 24.4556 93.95C24.3897 93.9548 24.3238 93.9571 24.258 93.9571H22.6845V96H22V91H24.2556ZM24.2274 93.7143C24.472 93.7143 24.6743 93.6548 24.8366 93.5309C24.9989 93.4095 25.1188 93.2571 25.1988 93.0738C25.2788 92.8905 25.3188 92.6929 25.3188 92.481C25.3188 92.269 25.2788 92.0714 25.1988 91.8881C25.1188 91.7048 24.9965 91.5524 24.8366 91.431C24.6743 91.3095 24.4697 91.2476 24.2274 91.2476H22.6821V93.7119H24.2274V93.7143Z" fill="white"/>
<path d="M32.9773 92.1866L32.7919 92.2607C32.627 91.8967 32.4147 91.6293 32.1572 91.4585C31.8996 91.2877 31.6317 91.2023 31.3493 91.2023C31.0567 91.2023 30.8012 91.2697 30.5827 91.4023C30.3643 91.5349 30.1829 91.7079 30.0387 91.9236C29.8944 92.1394 29.7852 92.3843 29.711 92.6585C29.6368 92.9326 29.5997 93.2135 29.5997 93.5012C29.5997 93.7888 29.6368 94.0719 29.711 94.3461C29.7852 94.6225 29.8944 94.8674 30.0387 95.0809C30.1829 95.2944 30.3643 95.4674 30.5827 95.6C30.8012 95.7326 31.0567 95.7978 31.3493 95.7978C31.5554 95.7978 31.7471 95.7573 31.9243 95.6764C32.1015 95.5955 32.2643 95.4787 32.4127 95.3258V93.5461H30.9846V93.3101H33V95.8584L32.4127 95.609C32.2478 95.7393 32.0685 95.8382 31.8728 95.9034C31.677 95.9685 31.4771 96 31.271 96C30.8918 96 30.5601 95.9258 30.2757 95.782C29.9913 95.636 29.7543 95.4449 29.5647 95.209C29.3751 94.973 29.2329 94.7056 29.1381 94.4068C29.0433 94.1079 28.998 93.8023 29.0001 93.4899C29.0021 93.1776 29.0516 92.8719 29.1464 92.5708C29.2412 92.2697 29.3854 92.0023 29.575 91.7686C29.7667 91.5349 30.0057 91.3461 30.2922 91.2068C30.5786 91.0652 30.9104 90.9978 31.2896 91.0001C31.4627 91.0001 31.6337 91.0225 31.7986 91.0697C31.9655 91.1169 32.1242 91.1888 32.2705 91.2854C32.4189 91.3821 32.5528 91.5057 32.6723 91.6562C32.7919 91.8068 32.8949 91.9843 32.9773 92.1866Z" fill="white"/>
<path d="M37.618 91L38.6931 93.9357L39.7618 91H40L38.8155 94.25V96H38.191V94.2714L37 91H37.618Z" fill="white"/>
<path d="M49 96L50.6793 91.5143L50.4876 91H51.1289L53 96H52.3653L51.8298 94.5857H49.7802L49.2446 96H49ZM49.8661 94.3429H51.7438L50.805 91.8429L49.8661 94.3429Z" fill="white"/>
<path d="M56.6982 91L59.7527 95.05V91H60V96H59.7527V95.9857L56.6473 91.8714V96H56.4V91.5357L56 91H56.6982Z" fill="white"/>
<path d="M64 91H65.6633C66.0539 91 66.3951 91.0714 66.6914 91.2143C66.9854 91.3571 67.2278 91.5452 67.4209 91.781C67.6139 92.0167 67.7576 92.2833 67.8541 92.5809C67.9506 92.8786 68 93.1857 68 93.4976C68 93.8119 67.9506 94.119 67.8519 94.4167C67.7531 94.7143 67.6072 94.981 67.4119 95.2167C67.2166 95.4524 66.9719 95.6429 66.6824 95.7857C66.3906 95.9286 66.0516 96 65.6655 96H64.0022V91H64ZM64.6532 91.25V95.7571H65.6431C65.9214 95.7571 66.1661 95.6929 66.3771 95.5643C66.5881 95.4357 66.7632 95.2667 66.9024 95.0548C67.0415 94.8429 67.1448 94.6024 67.2166 94.3333C67.2862 94.0643 67.3199 93.7881 67.3199 93.5048C67.3199 93.2214 67.284 92.9452 67.2166 92.6762C67.147 92.4071 67.0415 92.1667 66.9024 91.9548C66.7632 91.7429 66.5881 91.5738 66.3771 91.4452C66.1661 91.3167 65.9214 91.2524 65.6431 91.2524H64.6532V91.25Z" fill="white"/>
<path d="M77 91.25V91H81V91.25H79.3144V96H78.6921V91.25H77Z" fill="white"/>
<path d="M85 96V91H88V91.25H85.5832V92.9286H87.3026V93.1714H85.5832V95.7571H88V96H85Z" fill="white"/>
<path d="M95 92.1889L94.8193 92.2631C94.6532 91.899 94.4393 91.6316 94.1776 91.4586C93.916 91.2856 93.6439 91.2024 93.3615 91.2069C93.0666 91.2069 92.8091 91.2743 92.5889 91.4069C92.3688 91.5395 92.184 91.7125 92.0386 91.926C91.8912 92.1395 91.7811 92.3844 91.7084 92.6608C91.6357 92.9372 91.5983 93.2181 91.5983 93.5035C91.5983 93.7889 91.6336 94.0697 91.7084 94.3461C91.7811 94.6225 91.8912 94.8675 92.0386 95.0809C92.1861 95.2944 92.3688 95.4674 92.5889 95.6C92.8091 95.7326 93.0666 95.7978 93.3615 95.7978C93.6481 95.7978 93.9201 95.7124 94.1797 95.5416C94.4393 95.3708 94.6532 95.1034 94.8193 94.7394L95 94.8135C94.9169 95.0203 94.8131 95.1978 94.6885 95.3461C94.5639 95.4944 94.4268 95.618 94.2773 95.7169C94.1278 95.8157 93.9679 95.8876 93.7976 95.9326C93.6273 95.9775 93.4549 96 93.2805 96C92.8984 96 92.564 95.9281 92.2774 95.7843C91.9908 95.6405 91.7541 95.4517 91.5651 95.2135C91.3761 94.9776 91.2349 94.7102 91.1394 94.4091C91.0439 94.1079 90.9961 93.8023 91.0002 93.49C91.0023 93.1776 91.0522 92.872 91.1498 92.5732C91.2474 92.2743 91.3927 92.0092 91.5817 91.7755C91.7707 91.5418 92.0116 91.353 92.2982 91.2092C92.5848 91.0654 92.9191 90.9957 93.3013 91.0002C93.4757 91.0002 93.6481 91.0249 93.8142 91.0744C93.9824 91.1238 94.1402 91.1957 94.2877 91.2923C94.4351 91.389 94.5701 91.5125 94.6927 91.6631C94.8152 91.8137 94.9169 91.9867 95 92.1889Z" fill="white"/>
<path d="M99 96V91H99.5832V92.5929H101.796V91H102V96H101.796V92.8357H99.5832V96H99Z" fill="white"/>
<path d="M106.698 91L109.753 95.05V91H110V96H109.753V95.9857L106.647 91.8714V96H106.4V91.5357L106 91H106.698Z" fill="white"/>
<path d="M116.504 91C116.921 91 117.286 91.0726 117.597 91.2156C117.909 91.3586 118.168 91.547 118.374 91.7808C118.581 92.0145 118.737 92.2823 118.842 92.5819C118.947 92.8815 119 93.1879 119 93.5011C119 93.8143 118.947 94.1207 118.842 94.4203C118.737 94.7199 118.581 94.9877 118.374 95.2215C118.168 95.4553 117.909 95.6437 117.597 95.7867C117.286 95.9296 116.921 96 116.504 96C116.087 96 115.721 95.9296 115.407 95.7867C115.093 95.6437 114.832 95.4553 114.623 95.2215C114.415 94.9877 114.259 94.7199 114.156 94.4203C114.053 94.1207 114 93.8143 114 93.5011C114 93.1879 114.053 92.8815 114.156 92.5819C114.259 92.2823 114.415 92.0145 114.623 91.7808C114.832 91.547 115.093 91.3586 115.407 91.2156C115.721 91.0726 116.087 91 116.504 91ZM116.504 91.1975C116.197 91.1975 115.929 91.2633 115.699 91.3949C115.468 91.5266 115.275 91.699 115.124 91.9147C114.97 92.1303 114.854 92.3777 114.777 92.6523C114.7 92.9292 114.661 93.2106 114.661 93.4966C114.661 93.7826 114.698 94.064 114.777 94.3409C114.854 94.6178 114.97 94.8629 115.124 95.0785C115.277 95.2941 115.471 95.4666 115.699 95.5983C115.927 95.7299 116.197 95.7957 116.504 95.7957C116.812 95.7957 117.079 95.7299 117.308 95.5983C117.536 95.4666 117.727 95.2941 117.881 95.0785C118.034 94.8629 118.151 94.6155 118.227 94.3409C118.304 94.0663 118.344 93.7826 118.344 93.4966C118.344 93.2106 118.304 92.9292 118.227 92.6523C118.151 92.3754 118.034 92.1303 117.881 91.9147C117.727 91.699 117.536 91.5266 117.308 91.3949C117.079 91.2633 116.812 91.1975 116.504 91.1975Z" fill="white"/>
<path d="M123 91H123.578V95.7571H126V96H123V91Z" fill="white"/>
<path d="M131.504 91C131.921 91 132.286 91.0726 132.597 91.2156C132.909 91.3586 133.168 91.547 133.374 91.7808C133.581 92.0145 133.737 92.2823 133.842 92.5819C133.947 92.8815 134 93.1879 134 93.5011C134 93.8143 133.947 94.1207 133.842 94.4203C133.737 94.7199 133.581 94.9877 133.374 95.2215C133.168 95.4553 132.909 95.6437 132.597 95.7867C132.286 95.9296 131.921 96 131.504 96C131.087 96 130.721 95.9296 130.407 95.7867C130.093 95.6437 129.832 95.4553 129.623 95.2215C129.415 94.9877 129.259 94.7199 129.156 94.4203C129.053 94.1207 129 93.8143 129 93.5011C129 93.1879 129.053 92.8815 129.156 92.5819C129.259 92.2823 129.415 92.0145 129.623 91.7808C129.832 91.547 130.093 91.3586 130.407 91.2156C130.721 91.0726 131.087 91 131.504 91ZM131.504 91.1975C131.197 91.1975 130.929 91.2633 130.699 91.3949C130.468 91.5266 130.275 91.699 130.124 91.9147C129.97 92.1303 129.854 92.3777 129.777 92.6523C129.7 92.9292 129.661 93.2106 129.661 93.4966C129.661 93.7826 129.698 94.064 129.777 94.3409C129.854 94.6178 129.97 94.8629 130.124 95.0785C130.277 95.2941 130.471 95.4666 130.699 95.5983C130.927 95.7299 131.197 95.7957 131.504 95.7957C131.812 95.7957 132.079 95.7299 132.308 95.5983C132.536 95.4666 132.727 95.2941 132.881 95.0785C133.034 94.8629 133.151 94.6155 133.227 94.3409C133.304 94.0663 133.344 93.7826 133.344 93.4966C133.344 93.2106 133.304 92.9292 133.227 92.6523C133.151 92.3754 133.034 92.1303 132.881 91.9147C132.727 91.699 132.536 91.5266 132.308 91.3949C132.079 91.2633 131.812 91.1975 131.504 91.1975Z" fill="white"/>
<path d="M140.977 92.1866L140.792 92.2607C140.627 91.8967 140.415 91.6293 140.157 91.4585C139.9 91.2877 139.632 91.2023 139.349 91.2023C139.057 91.2023 138.801 91.2697 138.583 91.4023C138.364 91.5349 138.183 91.7079 138.039 91.9236C137.894 92.1394 137.785 92.3843 137.711 92.6585C137.637 92.9326 137.6 93.2135 137.6 93.5012C137.6 93.7888 137.637 94.0719 137.711 94.3461C137.785 94.6225 137.894 94.8674 138.039 95.0809C138.183 95.2944 138.364 95.4674 138.583 95.6C138.801 95.7326 139.057 95.7978 139.349 95.7978C139.555 95.7978 139.747 95.7573 139.924 95.6764C140.102 95.5955 140.264 95.4787 140.413 95.3258V93.5461H138.985V93.3101H141V95.8584L140.413 95.609C140.248 95.7393 140.069 95.8382 139.873 95.9034C139.677 95.9685 139.477 96 139.271 96C138.892 96 138.56 95.9258 138.276 95.782C137.991 95.636 137.754 95.4449 137.565 95.209C137.375 94.973 137.233 94.7056 137.138 94.4068C137.043 94.1079 136.998 93.8023 137 93.4899C137.002 93.1776 137.052 92.8719 137.146 92.5708C137.241 92.2697 137.385 92.0023 137.575 91.7686C137.767 91.5349 138.006 91.3461 138.292 91.2068C138.579 91.0652 138.91 90.9978 139.29 91.0001C139.463 91.0001 139.634 91.0225 139.799 91.0697C139.965 91.1169 140.124 91.1888 140.27 91.2854C140.419 91.3821 140.553 91.5057 140.672 91.6562C140.792 91.8068 140.895 91.9843 140.977 92.1866Z" fill="white"/>
<path d="M145.618 91L146.693 93.9357L147.762 91H148L146.815 94.25V96H146.191V94.2714L145 91H145.618Z" fill="white"/>
<path opacity="0.59" d="M147.8 82.0305C135.921 82.0305 55.2899 87 55.2899 87C55.2899 87 10.8511 82.915 0.21123 82.0675C0.21123 75.0196 0 58.6383 0 51.5926C12.1272 49.2549 55.2877 42 55.2877 42C55.2877 42 134.991 54.9194 148 57.1242C148.002 64.1721 147.8 74.9826 147.8 82.0305Z" fill="white"/>
<path opacity="0.46" d="M122.974 83.1341C107.212 83.9829 55.7172 87 55.7172 87C55.7172 87 33.8847 85.0421 24 84.1348C24.0983 64.6797 24.118 45.37 24.2164 25.9148C42.445 24.1306 78.5309 20.5296 78.5309 20.5296C83.2842 21.6496 87.4277 22.5851 87.4277 22.5851V0L91.6303 0.918166C91.6303 0.918166 91.6303 22.609 91.6303 23.5489C91.6303 23.5489 93.6693 24.0329 94.5872 24.2413C95.2756 24.3954 96.7552 24.7102 96.7552 24.7102L96.6525 1.99479L100.977 2.92163L100.918 25.5589L106.118 26.6311L106.048 4.05686L110.399 4.97937L110.362 27.393C110.362 27.393 122.663 30.039 123 30.1085C122.998 47.8445 122.974 65.3981 122.974 83.1341Z" fill="white"/>
<path d="M38 78.9978V53H56.9495V56.0683H41.4679V64.0306L56.1533 64.0916V67.1424L41.4679 67.0815V75.9317H57V79H38V78.9978Z" fill="#3B363C"/>
<path d="M62 79V53H65.6189L79.6189 73.4139V53H83V79H79.3811L65.3811 58.5688V79H62Z" fill="#3B363C"/>
<path d="M96.7282 79V56.0678H88V53H109V56.0678H100.234V78.9978H96.7282V79Z" fill="#3B363C"/>
</svg>
